<svg viewBox="0 0 24 24" xmlns="http://www.w3.org/2000/svg" width="400" height="400" shape-rendering="geometricPrecision">
  <defs>
    <path id="square" d="M0.5 0 A0.5 0.5 0 0 0 0 0.5 L0 6.5 A0.5 0.5 0 0 0 0.5 7 L6.5 7 A0.5 0.5 0 0 0 7 6.5 L7 0.5 A0.5 0.5 0 0 0 6.5 0 L0.5 0 z"/>
    <path id="arc-tl" d="M6.5 0 A6.5 6.5 0 0 0 0 6.5 L0 6.5 A0.5 0.5 0 0 0 0.5 7 L6.5 7 A0.5 0.5 0 0 0 7 6.5 L7 0.5 A0.5 0.5 0 0 0 6.5 0 L6.5 0 z"/>
    <path id="arc-tr" d="M0.5 0 A0.5 0.5 0 0 0 0 0.5 L0 6.5 A0.5 0.5 0 0 0 0.5 7 L6.5 7 A0.5 0.5 0 0 0 7 6.5 L7 6.5 A6.5 6.5 0 0 0 0.5 0 L0.5 0 z"/>
    <path id="arc-br" d="M0.5 0 A0.5 0.5 0 0 0 0 0.5 L0 6.5 A0.5 0.5 0 0 0 0.5 7 L0.5 7 A6.5 6.5 0 0 0 7 0.5 L7 0.5 A0.5 0.5 0 0 0 6.5 0 L0.5 0 z"/>
    <path id="arc-bl" d="M0.5 0 A0.5 0.5 0 0 0 0 0.5 L0 0.5 A6.5 6.5 0 0 0 6.5 7 L6.5 7 A0.5 0.5 0 0 0 7 6.5 L7 0.5 A0.5 0.5 0 0 0 6.5 0 L0.5 0 z"/>
    <path id="leaf-f" d="M6.5 0 A6.5 6.5 0 0 0 0 6.5 L0 6.5 A0.5 0.5 0 0 0 0.5 7 L0.5 7 A6.5 6.5 0 0 0 7 0.5 L7 0.5 A0.5 0.5 0 0 0 6.5 0 L6.5 0 z"/>
    <path id="leaf-b" d="M0.5 0 A0.5 0.5 0 0 0 0 0.5 L0 0.5 A6.5 6.5 0 0 0 6.5 7 L6.5 7 A0.5 0.5 0 0 0 7 6.5 L7 6.5 A6.5 6.5 0 0 0 0.5 0 L0.5 0 z"/>
    <path id="dome-t" d="M3.5 0 A3.5 3.5 0 0 0 0 3.5 L0 6.5 A0.5 0.5 0 0 0 0.5 7 L6.5 7 A0.5 0.5 0 0 0 7 6.5 L7 3.5 A3.5 3.5 0 0 0 3.5 0 L3.5 0 z"/>
    <path id="dome-r" d="M0.5 0 A0.5 0.5 0 0 0 0 0.5 L0 6.5 A0.5 0.5 0 0 0 0.5 7 L3.5 7 A3.5 3.5 0 0 0 7 3.5 L7 3.5 A3.5 3.5 0 0 0 3.5 0 L0.5 0 z"/>
    <path id="dome-b" d="M0.5 0 A0.5 0.5 0 0 0 0 0.5 L0 3.5 A3.5 3.5 0 0 0 3.5 7 L3.5 7 A3.5 3.5 0 0 0 7 3.5 L7 0.5 A0.5 0.5 0 0 0 6.5 0 L0.5 0 z"/>
    <path id="dome-l" d="M3.5 0 A3.5 3.5 0 0 0 0 3.5 L0 3.5 A3.5 3.5 0 0 0 3.5 7 L6.5 7 A0.5 0.5 0 0 0 7 6.5 L7 0.5 A0.5 0.5 0 0 0 6.5 0 L3.5 0 z"/>
    <path id="bud-tl" d="M0.5 0 A0.5 0.5 0 0 0 0 0.5 L0 3.5 A3.5 3.5 0 0 0 3.5 7 L3.5 7 A3.5 3.5 0 0 0 7 3.5 L7 3.5 A3.5 3.5 0 0 0 3.5 0 L0.5 0 z"/>
    <path id="bud-tr" d="M3.5 0 A3.5 3.5 0 0 0 0 3.5 L0 3.5 A3.5 3.5 0 0 0 3.5 7 L3.5 7 A3.5 3.5 0 0 0 7 3.5 L7 0.5 A0.5 0.5 0 0 0 6.5 0 L3.5 0 z"/>
    <path id="bud-br" d="M3.5 0 A3.5 3.5 0 0 0 0 3.5 L0 3.5 A3.5 3.5 0 0 0 3.5 7 L6.5 7 A0.5 0.5 0 0 0 7 6.5 L7 3.5 A3.5 3.5 0 0 0 3.5 0 L3.5 0 z"/>
    <path id="bud-bl" d="M3.5 0 A3.5 3.5 0 0 0 0 3.5 L0 6.5 A0.5 0.5 0 0 0 0.5 7 L3.5 7 A3.5 3.5 0 0 0 7 3.5 L7 3.5 A3.5 3.5 0 0 0 3.5 0 L3.5 0 z"/>
    <path id="circle" d="M3.5 0 A3.5 3.5 0 0 0 0 3.5 L0 3.5 A3.5 3.5 0 0 0 3.5 7 L3.5 7 A3.5 3.5 0 0 0 7 3.5 L7 3.5 A3.5 3.5 0 0 0 3.5 0 L3.5 0 z"/>
    <path id="liquid"
      d="M6.5 0 A6.5 6.5 0 0 0 0 6.5 L0 6.5 A0.5 0.5 0 0 0 0.5 7 L0.5 7 A6.5 6.5 0 0 0 7 0.5 L7 0.5 A0.5 0.5 0 0 0 6.5 0 L6.5 0 z">
      <animate attributeName="d"
        dur="8s"
        repeatCount="indefinite"
        calcMode="spline"
        keyTimes="0;0.25;0.5;0.75;1"
        keySplines="0.5 0 0 1;0.5 0 0 1;0.5 0 0 1;0.5 0 0 1"
        values="
          M6.5 0 A6.5 6.5 0 0 0 0 6.5 L0 6.5 A0.5 0.5 0 0 0 0.5 7 L0.5 7 A6.5 6.5 0 0 0 7 0.5 L7 0.5 A0.5 0.5 0 0 0 6.5 0 L6.5 0 z;
          M3.5 0 A3.5 3.5 0 0 0 0 3.5 L0 6.5 A0.5 0.5 0 0 0 0.5 7 L6.5 7 A0.5 0.5 0 0 0 7 6.5 L7 3.5 A3.5 3.5 0 0 0 3.5 0 L3.5 0 z;
          M0.5 0 A0.5 0.5 0 0 0 0 0.5 L0 6.5 A0.5 0.5 0 0 0 0.5 7 L6.5 7 A0.5 0.5 0 0 0 7 6.5 L7 6.5 A6.5 6.5 0 0 0 0.5 0 L0.5 0 z;
          M3.5 0 A3.5 3.5 0 0 0 0 3.5 L0 6.5 A0.5 0.5 0 0 0 0.5 7 L3.5 7 A3.5 3.5 0 0 0 7 3.5 L7 3.5 A3.5 3.5 0 0 0 3.5 0 L3.5 0 z;
          M6.5 0 A6.5 6.5 0 0 0 0 6.5 L0 6.5 A0.5 0.5 0 0 0 0.5 7 L0.5 7 A6.5 6.5 0 0 0 7 0.5 L7 0.5 A0.5 0.5 0 0 0 6.5 0 L6.5 0 z
        "/>
    </path>
  </defs>
  
  <style>
    .shape { fill: gold; }
  </style>
  
  <!-- Generated grid pattern -->
  <use href="#dome-t" class="shape" transform="translate(1,1)"/>
  <use href="#dome-t" class="shape" transform="translate(8.5,1)"/>
  <use href="#liquid" class="shape" transform="translate(16,1)"/>
  <use href="#square" class="shape" transform="translate(1,8.5)"/>
  <use href="#square" class="shape" transform="translate(8.5,8.5)"/>
  <use href="#arc-br" class="shape" transform="translate(16,8.5)"/>
  <use href="#circle" class="shape" transform="translate(1,16)"/>
  <use href="#square" class="shape" transform="translate(8.5,16)"/>
  <use href="#arc-tr" class="shape" transform="translate(16,16)"/>
</svg>
